<svg id="Laag_1" data-name="Laag 1" xmlns="http://www.w3.org/2000/svg" viewBox="0 0 311.81 113.39"><defs><style>.cls-1{fill:#29235c;}.cls-2{fill:#e6007e;}.cls-3{fill:#93d5f6;}.cls-4{fill:#307bbf;}.cls-5{fill:#277c7f;}.cls-6{fill:#005a6c;}.cls-7{fill:#009fe3;}.cls-8{fill:#b81178;}.cls-9{fill:#312783;}.cls-10{fill:#eb5b25;}.cls-11{fill:#9a1c57;}.cls-12{fill:#64358c;}.cls-13{fill:#45a6b2;}.cls-14{fill:#2179be;}.cls-15{fill:#34a3ae;}.cls-16{fill:#eb5e27;}</style></defs><path class="cls-1" d="M80.22,37,86,56.85h.12L92,37h5.34L88.83,63.45H83.1L74.65,37Z"/><path class="cls-1" d="M106.7,37V47.55h9.68V37H122V63.45h-5.57V52.52H106.7V63.45h-5.5V37Z"/><path class="cls-1" d="M137.05,37c5.84,0,9.38,2.82,9.38,8.23,0,6.08-4.23,9.14-10.18,9.14h-2.73v9.07H128V37Zm3.73,8.67c0-3.46-1.92-4.18-5.11-4.18h-2.15v8.43h2.23C138.78,49.93,140.78,48.9,140.78,45.68Z"/><path class="cls-2" d="M163.64,45.76v9h3.85v1.67h-3.85v7h-2v-7H150.31V54.58l7.92-17.09,1.57.83-7.61,16.46h9.46v-3.5l0-5.52Z"/><path class="cls-2" d="M173.06,60a12,12,0,0,0,6.88,2.19c2.92,0,6.18-.92,6.18-5.65,0-3.66-3.07-4.73-6.34-5.8-3.53-1.16-7.3-2.39-7.3-7.16,0-4.13,3.11-7,7.76-7a11.38,11.38,0,0,1,8,3.42L187,41.34a9.89,9.89,0,0,0-6.84-3c-2.45,0-5.68,1.08-5.68,5,0,3.58,2.84,4.57,6.45,5.73s7.11,2.5,7.11,7.43-3,7.48-8.26,7.48a13.68,13.68,0,0,1-7.72-2.31Z"/><path class="cls-2" d="M192.42,63.45,201.53,37h2.54l9.3,26.44h-2l-3.11-8.91h-10.8l-3,8.91ZM198,52.75h9.57l-4.84-14Z"/><path class="cls-2" d="M233.54,37v1.71H220.86V49h10.53v1.71H220.86V63.45h-1.92V37Z"/><path class="cls-2" d="M238.77,37h13.56v1.71H240.69V49.1h10v1.71h-10V61.74H252.6v1.71H238.77Z"/><path class="cls-2" d="M273.54,37v1.71h-8V63.45h-1.92V38.72h-7.88V37Z"/><path class="cls-2" d="M294.41,37l-8.23,16.42v10h-1.92v-10L275.85,37h2.22l7.19,14.23,7-14.23Z"/><path class="cls-3" d="M60.1,23.24a12.33,12.33,0,0,0-5.19-5.8L55,21.6l4,2.29Z"/><path class="cls-4" d="M59.06,28.54l2,1.12a.59.59,0,0,1,0-.13,12.2,12.2,0,0,0,.07-2.26,12.61,12.61,0,0,0-1-4l0,0L59,23.89Z"/><path class="cls-5" d="M59.16,37.84l3.75-2.21L61.77,34.2c-.5-.63-1.2-1.26-1.22-2.12a14.87,14.87,0,0,1,.5-2.42l-2-1.12-4,2.37.05,4.65Z"/><path class="cls-6" d="M59.2,42.5l2.89,1.63a1.59,1.59,0,0,0,.45-.51,2.45,2.45,0,0,0-.08-1.49,4.08,4.08,0,0,1-.32-1c0-.39.4-.43.7-.58.78-.39,2.34-1.16,2.06-2.26a3.55,3.55,0,0,0-.78-1.15L63,35.69l-.05-.06-3.75,2.21Z"/><path class="cls-4" d="M59.31,52.51c1.32-.11,2.49-.55,2.77-1.89a2.09,2.09,0,0,0,.05-.49L59.3,51.81Z"/><path class="cls-7" d="M61.69,46.87c.19-.52.58-.91.41-1.49-.11-.38-.46-.55-.19-1a.91.91,0,0,1,.18-.21L59.2,42.5l-3.79,2.24,0,2.88-.21.12,0,1.78,4,2.29,2.83-1.68C62.1,49,61.3,48,61.69,46.87Z"/><polygon class="cls-4" points="51.13 40.81 51.34 40.68 54.08 42.23 56.16 41 56.13 37.93 53.46 36.42 50.82 37.98 50.83 38.61 51.11 38.77 51.13 40.81"/><polygon class="cls-8" points="55.41 44.74 55.39 42.97 54.08 42.23 51.34 40.68 51.13 40.81 51.13 41.21 51.16 43.43 47.35 45.67 47.38 47.7 51.43 49.99 55.23 47.74 55.44 47.62 55.41 44.74"/><polygon class="cls-9" points="51.13 41.21 51.13 40.81 51.11 38.77 50.83 38.61 47.05 36.49 43.05 38.85 43.07 41.41 45.83 42.97 45.86 45.07 47.15 45.8 47.35 45.67 51.16 43.43 51.13 41.21"/><polygon class="cls-2" points="43.07 41.41 42.53 41.1 39.26 43.03 39.3 46.83 42.61 48.69 45.87 46.76 45.86 45.07 45.83 42.97 43.07 41.41"/><polygon class="cls-10" points="40.24 51.41 40.21 49.3 38.37 48.26 36.55 49.33 36.57 51.45 38.41 52.49 40.24 51.41"/><polygon class="cls-11" points="39.38 62.08 39.35 59.88 37.45 58.81 35.56 59.92 35.58 62.12 37.49 63.19 39.38 62.08"/><path class="cls-5" d="M54.91,17.44a16.94,16.94,0,0,0-5.33-2l-1,.6,1,1.93-1.82,2.88-.88,0v.9L51,24l4-2.37Z"/><polygon class="cls-3" points="48.57 16.02 48 14.93 44.6 14.8 42.79 17.68 44.37 20.69 46.89 20.79 47.77 20.82 49.59 17.95 48.57 16.02"/><polygon class="cls-12" points="38.66 33.74 35.97 32.23 33.31 33.8 33.35 36.89 36.03 38.41 38.69 36.83 38.66 33.74"/><polygon class="cls-10" points="40.3 77.8 43.01 79.33 45.69 77.74 45.66 74.63 42.95 73.1 40.26 74.68 40.3 77.8"/><polygon class="cls-11" points="37.07 85.97 38.45 86.74 39.81 85.94 39.79 84.36 38.42 83.58 37.06 84.39 37.07 85.97"/><polygon class="cls-2" points="57.92 85.21 55.03 83.58 52.16 85.27 52.2 88.59 55.09 90.23 57.96 88.53 57.92 85.21"/><polygon class="cls-10" points="51.32 91.81 51.3 89.7 49.45 88.66 47.63 89.73 47.66 91.85 49.5 92.89 51.32 91.81"/><polygon class="cls-12" points="53.63 78.76 50.92 77.23 48.24 78.82 48.27 81.93 50.98 83.46 53.67 81.88 53.63 78.76"/><polygon class="cls-13" points="57.08 27.43 57.05 23.91 53.98 22.18 50.95 23.97 50.95 23.97 50.99 27.49 54.05 29.22 57.08 27.43"/><polygon class="cls-9" points="42.53 30.2 40.21 31.57 39.57 31.21 39.61 34.61 43.02 36.53 46.39 34.54 46.36 32.09 42.53 29.94 42.53 30.2"/><polygon class="cls-7" points="42.53 30.2 42.53 29.94 41.68 29.46 41.68 29.45 41.65 27.03 40.16 26.19 37.84 27.56 37.87 30.25 39.57 31.21 40.21 31.57 42.53 30.2"/><polygon class="cls-4" points="50.95 23.97 50.95 23.97 46.26 21.33 41.62 24.07 41.65 27.03 41.68 29.45 41.68 29.46 42.53 29.94 46.36 32.09 46.37 32.1 51.01 29.36 50.99 27.49 50.99 27.49 50.95 23.97"/><polygon class="cls-14" points="50.95 23.97 50.95 23.97 50.99 27.49 50.99 27.49 50.95 23.97 50.95 23.97"/><polygon class="cls-13" points="22.45 88.57 22.54 85.22 19.68 83.46 16.73 85.06 16.64 88.41 19.5 90.17 22.45 88.57"/><polygon class="cls-5" points="21.54 75.07 19.08 73.69 16.66 75.12 16.69 77.94 19.14 79.32 21.57 77.89 21.54 75.07"/><polygon class="cls-9" points="29.16 82.09 26.63 83.58 25.5 82.95 25.54 86.39 29.26 88.48 32.93 86.31 32.9 83.33 29.15 81.22 29.16 82.09"/><polygon class="cls-7" points="29.15 81.22 29.15 81.22 29.13 79.97 29.13 79.16 26.57 77.72 24.05 79.22 24.08 82.15 25.5 82.95 26.63 83.58 29.16 82.09 29.15 81.22"/><polygon class="cls-8" points="38.7 67.81 36.17 66.38 35.96 66.51 35.99 69.13 32.19 71.37 32.21 73.4 32.72 73.69 33.73 73.1 37.28 75.09 40.27 73.32 40.26 71.63 38.73 70.77 38.7 67.81"/><polygon class="cls-13" points="44.83 70.71 44.79 67.19 41.73 65.46 38.7 67.25 38.7 67.81 38.73 70.77 40.26 71.63 41.8 72.5 44.83 70.71"/><polygon class="cls-9" points="35.96 66.51 35.94 64.47 31.89 62.19 27.88 64.56 27.92 68.58 28.64 68.15 31.54 69.78 31.56 71.26 31.98 71.5 32.19 71.37 35.99 69.13 35.96 66.51"/><polygon class="cls-2" points="28.64 68.15 27.92 68.58 25.78 69.84 25.81 73.17 28.71 74.8 31.58 73.11 31.56 71.26 31.54 69.78 28.64 68.15"/><polygon class="cls-4" points="38.42 75.74 37.28 75.09 33.73 73.1 32.72 73.69 29.09 75.83 29.13 79.16 29.13 79.16 29.14 79.97 29.15 81.22 32.9 83.33 33.84 83.86 38.48 81.13 38.42 75.74"/><rect class="cls-14" x="29.13" y="79.16" width="0.01" height="0.81" transform="translate(-0.83 0.31) rotate(-0.6)"/><rect class="cls-14" x="28.52" y="80.6" width="1.25" height="0.01" transform="translate(-55.42 66.64) rotate(-60.75)"/><polygon class="cls-9" points="33.33 18.7 34.31 18.12 34.3 16.98 33.3 16.41 32.32 17 32.33 18.14 33.33 18.7"/><polygon class="cls-3" points="29.21 33.14 31.3 31.91 31.28 29.48 29.16 28.29 27.07 29.52 27.1 31.95 29.21 33.14"/><polygon class="cls-9" points="32.31 24.85 32.3 24.24 30.53 23.24 28.78 24.28 28.8 26.31 30.57 27.31 31.55 26.73 31.53 25.31 32.31 24.85"/><polygon class="cls-4" points="36.6 25.26 34.05 23.83 32.31 24.85 31.53 25.31 31.55 26.73 31.57 28.24 34.11 29.68 36.63 28.19 36.6 25.26"/><polygon class="cls-9" points="55.67 97.16 53.68 96.03 51.71 97.2 51.73 99.49 53.73 100.62 55.7 99.45 55.67 97.16"/><polygon class="cls-9" points="24.29 67.92 22.84 67.11 21.41 67.95 21.43 69.62 22.87 70.43 24.3 69.59 24.29 67.92"/><polygon class="cls-3" points="39.54 15.36 38.37 14.7 37.22 15.38 37.23 16.72 38.4 17.38 39.56 16.7 39.54 15.36"/><polygon class="cls-13" points="33.68 39.98 32.12 39.1 30.58 40.01 30.6 41.8 32.16 42.68 33.7 41.77 33.68 39.98"/><polygon class="cls-3" points="14.04 81.24 12.48 80.36 10.94 81.27 10.96 83.06 12.52 83.94 14.06 83.03 14.04 81.24"/><path class="cls-1" d="M82.83,73.25a8.32,8.32,0,0,1,.37,2.34c0,2-.79,3.41-2.51,3.41C79.57,79,79,78.45,79,77.06V73.25h.56V76.7c0,.92,0,1.82,1.22,1.82,1.4,0,1.87-1.45,1.87-2.78a9,9,0,0,0-.38-2.49Z"/><path class="cls-1" d="M85.14,71.17a.49.49,0,0,1,0,1,.45.45,0,0,1-.45-.49A.46.46,0,0,1,85.14,71.17Zm-.28,7.67V73.25h.56v5.59Z"/><path class="cls-1" d="M87.89,78.84h-.57V73.91l0-.66h.52l.09.86a1.55,1.55,0,0,1,1.44-1,1.7,1.7,0,0,1,.89.22l-.21.47a1.76,1.76,0,0,0-.78-.2,1.5,1.5,0,0,0-1.34,1.6Z"/><path class="cls-1" d="M91.74,71v2.3h1.68v.46H91.74v3.78c0,.81.32,1,.88,1a1.69,1.69,0,0,0,.93-.3l.22.39a2.07,2.07,0,0,1-1.18.38c-1.24,0-1.42-.66-1.42-1.56V71Z"/><path class="cls-1" d="M99,73.25v4.84l.06.75h-.52l-.1-.84a2.18,2.18,0,0,1-1.89,1c-1.18,0-1.79-.63-1.79-1.9V73.25h.56v3.6c0,.94.22,1.68,1.38,1.68A1.77,1.77,0,0,0,98.44,77V73.25Z"/><path class="cls-1" d="M105.14,77.93l.07.91h-.54l-.07-.72h0a2,2,0,0,1-1.77.89c-1.66,0-2.22-1.21-2.22-2.72,0-2,.93-3.19,2.77-3.19a6.1,6.1,0,0,1,1.78.33Zm-.57-4.11a3.53,3.53,0,0,0-1.33-.24c-1.56,0-2.08,1.19-2.08,2.78,0,1,.33,2.17,1.69,2.17a1.56,1.56,0,0,0,1.72-1.47Z"/><path class="cls-1" d="M107.6,71v6.28c0,1,.17,1.29.79,1.29a1.78,1.78,0,0,0,.77-.19l.15.42a2.06,2.06,0,0,1-1,.24c-1.2,0-1.26-.8-1.26-1.71V71Z"/><path class="cls-1" d="M112.92,78.84V71h.57v3.12a2.28,2.28,0,0,1,1.89-1c1.18,0,1.79.66,1.79,1.93v3.82h-.57V75.25c0-.89-.19-1.69-1.36-1.69a1.77,1.77,0,0,0-1.75,1.59v3.69Z"/><path class="cls-1" d="M123.29,73.25v4.84l.06.75h-.53l-.1-.84a2.17,2.17,0,0,1-1.88,1c-1.18,0-1.8-.63-1.8-1.9V73.25h.57v3.6c0,.94.22,1.68,1.37,1.68A1.77,1.77,0,0,0,122.72,77V73.25Z"/><path class="cls-1" d="M125.21,78.84V74l-.07-.75h.49l.1.86a2.1,2.1,0,0,1,1.78-1,1.63,1.63,0,0,1,1.67,1.15A2,2,0,0,1,131,73.09c1.19,0,1.83.73,1.83,2v3.75h-.57V75.3c0-.9-.21-1.74-1.36-1.74a1.6,1.6,0,0,0-1.59,1.51v3.77h-.57V75.31c0-.8-.13-1.75-1.36-1.75a1.64,1.64,0,0,0-1.61,1.59v3.69Z"/><path class="cls-1" d="M139,77.93l.08.91h-.55l-.07-.72h0a2,2,0,0,1-1.77.89c-1.66,0-2.22-1.21-2.22-2.72,0-2,.93-3.19,2.77-3.19a6.1,6.1,0,0,1,1.78.33Zm-.57-4.11a3.53,3.53,0,0,0-1.33-.24c-1.56,0-2.08,1.19-2.08,2.78,0,1,.33,2.17,1.69,2.17a1.56,1.56,0,0,0,1.72-1.47Z"/><path class="cls-1" d="M140.83,78.84V74l-.05-.75h.51l.11.88a2.21,2.21,0,0,1,1.88-1c1.18,0,1.8.67,1.8,1.94v3.81h-.57V75.28c0-.94-.22-1.72-1.33-1.72a1.76,1.76,0,0,0-1.78,1.57v3.71Z"/><path class="cls-1" d="M150.08,81.22h-.57V73.4a7.84,7.84,0,0,1,1.91-.31c1.78,0,2.52,1,2.52,2.89s-.84,3-2.21,3a2.92,2.92,0,0,1-1.65-.52Zm1.36-7.64a4.26,4.26,0,0,0-1.36.22v4.06a2.57,2.57,0,0,0,1.65.66c.87,0,1.65-.6,1.65-2.42C153.38,74.81,153.11,73.58,151.44,73.58Z"/><path class="cls-1" d="M156.13,71v6.28c0,1,.17,1.29.8,1.29a1.82,1.82,0,0,0,.77-.19l.15.42a2.09,2.09,0,0,1-1,.24c-1.21,0-1.26-.8-1.26-1.71V71Z"/><path class="cls-1" d="M163,77.93l.08.91h-.55l-.07-.72h0a2,2,0,0,1-1.77.89c-1.66,0-2.22-1.21-2.22-2.72,0-2,.94-3.19,2.78-3.19a6,6,0,0,1,1.77.33Zm-.57-4.11a3.53,3.53,0,0,0-1.33-.24c-1.56,0-2.08,1.19-2.08,2.78,0,1,.33,2.17,1.69,2.17a1.56,1.56,0,0,0,1.72-1.47Z"/><path class="cls-1" d="M165.41,71v2.3h1.68v.46h-1.68v3.78c0,.81.32,1,.88,1a1.73,1.73,0,0,0,.94-.3l.21.39a2.07,2.07,0,0,1-1.18.38c-1.24,0-1.42-.66-1.42-1.56V71Z"/><path class="cls-1" d="M169.12,81.22h-.57V72.64a1.58,1.58,0,0,1,1.73-1.81,3.21,3.21,0,0,1,1.26.29l-.19.45a3.05,3.05,0,0,0-1.14-.25c-.85,0-1.09.52-1.09,1.35v.58H171v.46h-1.85Z"/><path class="cls-1" d="M173.82,73.09c.75,0,2.23.24,2.23,2.77,0,2.25-1.05,3.14-2.43,3.14s-2.24-1-2.24-3C171.38,73.64,172.73,73.09,173.82,73.09Zm1.66,3c0-1.42-.45-2.49-1.73-2.49s-1.8,1-1.8,2.32c0,1.17.26,2.63,1.75,2.63C174.94,78.53,175.48,77.35,175.48,76.07Z"/><path class="cls-1" d="M178.22,78.84h-.57V73.91l-.05-.66h.52l.1.86a1.54,1.54,0,0,1,1.44-1,1.69,1.69,0,0,1,.88.22l-.2.47a1.8,1.8,0,0,0-.78-.2,1.5,1.5,0,0,0-1.34,1.6Z"/><path class="cls-1" d="M181.52,78.84V74l-.07-.75h.49l.1.86a2.1,2.1,0,0,1,1.78-1,1.62,1.62,0,0,1,1.67,1.15,2,2,0,0,1,1.82-1.15c1.19,0,1.83.73,1.83,2v3.75h-.57V75.3c0-.9-.2-1.74-1.36-1.74a1.6,1.6,0,0,0-1.59,1.51v3.77h-.57V75.31c0-.8-.12-1.75-1.36-1.75a1.63,1.63,0,0,0-1.6,1.59v3.69Z"/><path class="cls-1" d="M194.16,81.22h-.57V72.64a1.57,1.57,0,0,1,1.72-1.81,3.21,3.21,0,0,1,1.26.29l-.19.45a3,3,0,0,0-1.13-.25c-.86,0-1.09.52-1.09,1.35v.58H196v.46h-1.85Z"/><path class="cls-1" d="M198.86,73.09c.75,0,2.22.24,2.22,2.77,0,2.25-1,3.14-2.43,3.14s-2.24-1-2.24-3C196.41,73.64,197.77,73.09,198.86,73.09Zm1.65,3c0-1.42-.45-2.49-1.72-2.49s-1.81,1-1.81,2.32c0,1.17.26,2.63,1.75,2.63C200,78.53,200.51,77.35,200.51,76.07Z"/><path class="cls-1" d="M203.25,78.84h-.57V73.91l0-.66h.52l.09.86a1.55,1.55,0,0,1,1.44-1,1.7,1.7,0,0,1,.89.22l-.21.47a1.76,1.76,0,0,0-.78-.2,1.5,1.5,0,0,0-1.34,1.6Z"/><path class="cls-1" d="M208.83,78a2.75,2.75,0,0,0,1.55.49,1.16,1.16,0,0,0,1.3-1.13c0-.76-.57-1-1.3-1.18s-1.69-.46-1.69-1.56a1.58,1.58,0,0,1,1.78-1.57,2.41,2.41,0,0,1,1.76.74l-.35.38a2,2,0,0,0-1.48-.65,1.07,1.07,0,0,0-1.19,1c0,.72.6.92,1.33,1.14s1.69.47,1.69,1.59A1.65,1.65,0,0,1,210.36,79a3,3,0,0,1-1.78-.52Z"/><path class="cls-1" d="M217.88,77.93l.08.91h-.54l-.07-.72h0a2.05,2.05,0,0,1-1.77.89c-1.66,0-2.22-1.21-2.22-2.72,0-2,.93-3.19,2.77-3.19a6,6,0,0,1,1.77.33Zm-.56-4.11a3.53,3.53,0,0,0-1.33-.24c-1.56,0-2.08,1.19-2.08,2.78,0,1,.33,2.17,1.69,2.17a1.56,1.56,0,0,0,1.72-1.47Z"/><path class="cls-1" d="M220.34,81.22h-.57V72.64a1.57,1.57,0,0,1,1.72-1.81,3.21,3.21,0,0,1,1.26.29l-.19.45a3,3,0,0,0-1.13-.25c-.86,0-1.09.52-1.09,1.35v.58h1.85v.46h-1.85Z"/><path class="cls-1" d="M226.69,74.39c0,1.92-2.61,2-3.54,1.9,0,1.07.51,2.22,1.87,2.22a2.28,2.28,0,0,0,1.47-.53l.28.39A2.65,2.65,0,0,1,225,79c-1.71,0-2.45-1.21-2.45-2.9s.94-3,2.55-3C226.16,73.09,226.69,73.65,226.69,74.39Zm-1.57-.84a2.14,2.14,0,0,0-2,2.28c.62.06,3,0,3-1.32A.91.91,0,0,0,225.12,73.55Z"/><path class="cls-1" d="M228.63,71v2.3h1.69v.46h-1.69v3.78c0,.81.32,1,.89,1a1.69,1.69,0,0,0,.93-.3l.22.39a2.1,2.1,0,0,1-1.18.38c-1.24,0-1.42-.66-1.42-1.56V71Z"/><path class="cls-1" d="M235.88,78.93a5,5,0,0,1-.22,1.57,2,2,0,0,1-2,1.36c-1.11,0-1.63-.55-1.63-1.39a2.47,2.47,0,0,1,1.29-2,1.63,1.63,0,0,1-1.65-1.87v-3.4h.57v3.17c0,.93.09,1.68,1.5,1.68a1.54,1.54,0,0,0,1.61-1.51V73.25h.55Zm-2.19,2.46c1.19,0,1.62-1,1.62-2.4V78c-1.6.63-2.74,1.28-2.74,2.44C232.57,81.06,233,81.39,233.69,81.39Z"/><path class="cls-1" d="M244.58,77.93l.08.91h-.55l-.07-.72h0a2,2,0,0,1-1.77.89c-1.66,0-2.22-1.21-2.22-2.72,0-2,.93-3.19,2.77-3.19a6.1,6.1,0,0,1,1.78.33ZM244,73.82a3.53,3.53,0,0,0-1.33-.24c-1.56,0-2.08,1.19-2.08,2.78,0,1,.33,2.17,1.69,2.17A1.56,1.56,0,0,0,244,77.06Z"/><path class="cls-1" d="M246.2,78a2.71,2.71,0,0,0,1.54.49,1.17,1.17,0,0,0,1.31-1.13c0-.76-.58-1-1.31-1.18s-1.69-.46-1.69-1.56a1.58,1.58,0,0,1,1.78-1.57,2.39,2.39,0,0,1,1.76.74l-.35.38a2,2,0,0,0-1.47-.65,1.07,1.07,0,0,0-1.2,1c0,.72.6.92,1.33,1.14s1.69.47,1.69,1.59A1.65,1.65,0,0,1,247.72,79a3,3,0,0,1-1.77-.52Z"/><path class="cls-1" d="M250.75,78a2.75,2.75,0,0,0,1.55.49,1.16,1.16,0,0,0,1.3-1.13c0-.76-.58-1-1.3-1.18s-1.7-.46-1.7-1.56a1.59,1.59,0,0,1,1.79-1.57,2.42,2.42,0,0,1,1.76.74l-.36.38a2,2,0,0,0-1.47-.65,1.06,1.06,0,0,0-1.19,1c0,.72.6.92,1.32,1.14s1.7.47,1.7,1.59A1.66,1.66,0,0,1,252.27,79a3,3,0,0,1-1.77-.52Z"/><path class="cls-1" d="M259.31,74.39c0,1.92-2.61,2-3.54,1.9,0,1.07.51,2.22,1.87,2.22a2.28,2.28,0,0,0,1.47-.53l.28.39a2.66,2.66,0,0,1-1.74.63c-1.7,0-2.44-1.21-2.44-2.9s.93-3,2.55-3C258.78,73.09,259.31,73.65,259.31,74.39Zm-1.58-.84a2.13,2.13,0,0,0-2,2.28c.61.06,3,0,3-1.32A.91.91,0,0,0,257.73,73.55Z"/><path class="cls-1" d="M260.42,78a2.75,2.75,0,0,0,1.55.49,1.16,1.16,0,0,0,1.3-1.13c0-.76-.58-1-1.3-1.18s-1.69-.46-1.69-1.56a1.58,1.58,0,0,1,1.78-1.57,2.41,2.41,0,0,1,1.76.74l-.35.38a2,2,0,0,0-1.48-.65,1.07,1.07,0,0,0-1.19,1c0,.72.6.92,1.33,1.14s1.69.47,1.69,1.59A1.65,1.65,0,0,1,262,79a3,3,0,0,1-1.78-.52Z"/><path class="cls-1" d="M265,78a2.71,2.71,0,0,0,1.54.49,1.17,1.17,0,0,0,1.31-1.13c0-.76-.58-1-1.31-1.18s-1.69-.46-1.69-1.56a1.58,1.58,0,0,1,1.78-1.57,2.41,2.41,0,0,1,1.76.74l-.35.38a2,2,0,0,0-1.48-.65,1.07,1.07,0,0,0-1.19,1c0,.72.6.92,1.33,1.14s1.69.47,1.69,1.59A1.65,1.65,0,0,1,266.5,79a2.93,2.93,0,0,1-1.77-.52Z"/><path class="cls-1" d="M269.81,78.84V74l-.07-.75h.49l.11.86a2.09,2.09,0,0,1,1.78-1,1.64,1.64,0,0,1,1.67,1.15,2,2,0,0,1,1.82-1.15c1.19,0,1.82.73,1.82,2v3.75h-.56V75.3c0-.9-.21-1.74-1.37-1.74a1.61,1.61,0,0,0-1.59,1.51v3.77h-.57V75.31c0-.8-.12-1.75-1.36-1.75a1.63,1.63,0,0,0-1.6,1.59v3.69Z"/><path class="cls-1" d="M283.12,74.39c0,1.92-2.61,2-3.54,1.9,0,1.07.51,2.22,1.87,2.22a2.28,2.28,0,0,0,1.47-.53l.28.39a2.66,2.66,0,0,1-1.74.63c-1.7,0-2.44-1.21-2.44-2.9s.93-3,2.54-3C282.59,73.09,283.12,73.65,283.12,74.39Zm-1.58-.84a2.12,2.12,0,0,0-2,2.28c.61.06,3,0,3-1.32A.91.91,0,0,0,281.54,73.55Z"/><path class="cls-1" d="M284.49,78.84V74l0-.75H285l.1.88a2.22,2.22,0,0,1,1.89-1c1.18,0,1.79.67,1.79,1.94v3.81h-.57V75.28c0-.94-.21-1.72-1.33-1.72a1.76,1.76,0,0,0-1.78,1.57v3.71Z"/><path class="cls-1" d="M291.19,71v2.3h1.68v.46h-1.68v3.78c0,.81.32,1,.89,1a1.69,1.69,0,0,0,.93-.3l.21.39A2,2,0,0,1,292,79c-1.24,0-1.42-.66-1.42-1.56V71Z"/><polygon class="cls-3" points="57.67 78.06 56.95 78.48 56.31 78.12 55.51 78.61 55.55 80.37 57.09 81.22 58.59 80.3 58.55 78.55 57.67 78.06"/><path class="cls-15" d="M52.53,61.21l.35.1Z"/><path class="cls-13" d="M51.13,64.56l0-3.43.35-.21-1.55-.36,0,2.33-4,2.38-1.51-.85,0,1.92L47,67.78V67Z"/><path class="cls-15" d="M53.05,61.36l.3.09Z"/><path class="cls-15" d="M53.68,61.56l-.14-.05.14.05Z"/><path class="cls-15" d="M52,61.06l.42.11Z"/><path class="cls-15" d="M51.44,60.92l.49.12Z"/><path class="cls-9" d="M57.09,64.4c.1.23.19.47.29.73C57.28,64.87,57.19,64.63,57.09,64.4Z"/><path class="cls-9" d="M52.41,61.17l.12,0Z"/><polygon class="cls-9" points="51.44 60.92 51.44 60.92 51.44 60.92 51.44 60.92"/><path class="cls-9" d="M51.93,61l.06,0Z"/><path class="cls-9" d="M52.88,61.31l.17,0Z"/><path class="cls-9" d="M53.35,61.45l.19.06Z"/><path class="cls-9" d="M57.43,65.26l0-.05,0,.05Z"/><path class="cls-9" d="M57,64.24l-.2-.45a4.59,4.59,0,0,0-1.7-1.65,10.66,10.66,0,0,0-1.45-.58l-.14-.05-.19-.06-.3-.09-.17,0-.35-.1-.12,0L52,61.06l-.06,0-.49-.12h0l-.35.21,0,3.43h0L53.72,66,55,66.7V65.47Z"/><path class="cls-5" d="M59.15,71.65l-2.29-1.29-1.43.85v.6L53.38,73l0,3.46,2.9,1.63.64.36.72-.42,2.41-1.43C59.79,74.82,59.48,73.15,59.15,71.65Z"/><path class="cls-7" d="M57,64.24h0l.06.16Z"/><path class="cls-7" d="M57.38,65.13l0,.08Z"/><path class="cls-7" d="M57.43,65.26l0-.05,0-.08c-.1-.26-.19-.5-.29-.73L57,64.24,55,65.47V66.7h0l.41.23,0,1.46,1.92,1.08,1.18-.7A35.24,35.24,0,0,0,57.43,65.26Z"/><polygon class="cls-4" points="55.43 71.21 55.4 68.4 55.38 66.94 54.97 66.71 54.96 66.71 54.96 66.7 53.72 66.01 51.14 64.55 51.13 64.56 46.95 67.03 46.95 67.78 47 71.9 51.24 74.29 53.38 73.03 55.44 71.81 55.43 71.21"/><polygon class="cls-14" points="54.96 66.7 54.96 66.71 54.97 66.71 54.96 66.7"/><path class="cls-2" d="M53.27,53.46c.51-1,1.64-.94,2.63-1s2.2.14,3.41,0v-.7l-4-2.29-3.45,2,1.46.82Z"/><path class="cls-16" d="M52.13,55c0-.11,0-.05,0,0Z"/><path class="cls-16" d="M52.13,55h0C52.13,55,52.14,55.07,52.13,55Z"/><path class="cls-10" d="M49.87,58.64l3.43-2,0-3.15V52.38l-1.46-.82L49.57,50.3l-3.64,2.16L46,56l3.9,2.2ZM52.13,55c0,.11,0,.06,0,0Z"/><polygon class="cls-8" points="49.89 60.56 49.87 58.64 49.87 58.21 45.97 56.01 45.79 55.91 44.73 56.54 44.76 58.82 42.29 60.28 41.78 59.99 41.81 62.97 44.38 64.42 45.89 65.27 49.91 62.89 49.89 60.56"/><polygon class="cls-2" points="44.76 58.82 44.73 56.54 44.73 55.94 42.23 54.53 39.75 55.99 39.78 58.87 41.78 59.99 42.29 60.28 44.76 58.82"/><polygon class="cls-8" points="31.64 57.42 34.44 58.99 37.2 57.36 37.17 54.15 34.38 52.57 31.61 54.2 31.64 57.42"/><polygon class="cls-4" points="47.74 84.34 45.23 82.94 42.76 84.4 42.79 87.27 45.29 88.68 47.77 87.22 47.74 84.34"/></svg>